<?xml version="1.0" encoding="UTF-8"?>
<svg id="_レイヤー_1" data-name="レイヤー_1" xmlns="http://www.w3.org/2000/svg" xmlns:xlink="http://www.w3.org/1999/xlink" version="1.1" viewBox="0 0 453.54 453.54">
  <!-- Generator: Adobe Illustrator 30.2.1, SVG Export Plug-In . SVG Version: 2.1.1 Build 1)  -->
  <defs>
    <style>
      .st0 {
        fill: none;
      }

      .st1 {
        fill: #040000;
      }

      .st2 {
        clip-path: url(#clippath);
      }
    </style>
    <clipPath id="clippath">
      <rect class="st0" width="453.54" height="453.54"/>
    </clipPath>
  </defs>
  <g class="st2">
    <g>
      <path class="st1" d="M386.3,380.8c-2.96-16.86-9.42-36.93-11.13-53.21-3.08-29.18,2.17-52.55-31.04-66.45-17.49-7.32-37.21-12.35-54.82-19.79-.4-.55,2.07-12,2.67-13.33,1.75-3.91,10.05-11.41,13.08-17.14,1.48-2.8,4.13-12.12,4.93-13.1.58-.71,2.62-.85,3.61-1.74,6.23-5.62,13.5-15.91,14.59-24.42.46-3.62-.99-9.03-.47-11.17.61-2.5,5.91-9.24,7.41-14.07,7.67-24.75-7.3-66.16-33.9-73.4-1.96-.53-4.21.2-6.11-.71-1.42-.68-4.56-6.55-6.33-8.29-10.58-10.32-24.69-10.04-37.78-5.63-42.02,14.16-70.65,31.17-63.98,81.07.33,2.48,2.46,6.71,2.45,7.91,0,1.39-2.85,5.42-3.3,8.03-1.92,11.13,5.6,26.2,13.38,33.93,2.55,2.53,6.06,3.01,6.64,3.59.36.36,3.81,8.81,3.93,9.3.54,2.2-2.87,20.12-4.18,21.69-.97,1.17-12.09,1.16-16.08,2.45-11.79,3.8-24.96,10.82-37.54,15.1-18.6,6.33-40.69,10.34-58.28,17.76-14.07,5.93-19.18,15.18-27.06,27.53-21.65,33.93-36.81,73.29-54.38,109.47-.28,1.14-.39,2.3-.05,3.44,1.27,4.31,26.3,13.3,27.04,15.95-2.52,16.58-6.36,33.09-8.51,49.74-4.63,35.93-.92,44.42,22.74,70.53,3.32,3.66,15.81,17.03,19.11,18.91,4.77,2.73,9.28.38,7-5-1.53-3.63-14.64-14.67-18.31-18.79-7.09-7.94-20.5-22.88-22.64-32.93-4.78-22.44,6.88-53.69,8.57-76.72l1.44-2.48,44.22,16.68c2.02,2.91-12.46,41.21-12.17,47.67,9.52,9.51,40.94,66.29,50.02,69.03,6.41,1.94,6.06-4.09,3.03-7.93l-43.7-62.59c3.19-12.74,7.09-25.3,10.87-37.87.58-1.94.4-4.42.86-5.73.41-1.17,5.32-6.55,7.29-12.45,1.88-5.64,15.24-76.88,13.78-81.2-.84-2.49-2.39-1.27-3.94.56-3.86,4.59-16.01,74.15-19.29,80.93-.3,1.23-1.02,1.61-2.24,1.71-2.23.17-15.3-4.73-18.55-5.88-6.74-2.38-55.03-22.78-55.96-26,12.43-27.94,25.07-56.79,39.73-83.86,4.8-8.87,19.3-35.74,26.45-40.82,4.32-3.07,17.88-6.65,23.67-8.51,24.9-7.99,50.58-13.81,74.33-25.09,1.67.32,1.66,6.25,2.41,8.34,13.1,37.1,93.55,58.45,99,4.34l56.73,21.27c31.65,16.44,17.09,62.22,15.93,90.36-.16,3.81-1.37,10.15,3.87,9.25l4.88-23.38,10.77,59.74c-15.29,11.33-31.84,23.3-51.7,24.09,2.8-17.69,7.85-34.93,11.4-52.46,2.32-11.44,6.81-28.58,7.16-39.72.17-5.51-2.32-7.23-6.92-3.91l-22.89,100.93c-10.19,23.99-20.6,45.41-30.77,71.6l-23.28,42.04c.63,3.53,4.58,4.49,7.36,2.48,1.54-1.12,7.82-12.36,9.36-15.01,9.34-16.04,22.52-46.82,37.93-56.63,3.85-2.45,16.17-5.31,13.11-10.33-2.53-4.16-11.91-.03-15.13,1.97l-7.76,6.5,16.69-37.53c10.8-.43,20.89-3.71,31.03-6.99-.72,7.94-2.3,15.94-2.91,23.89-.72,9.42.1,21.28-1.07,30.13-1.52,11.57-18.86,32.28-26.71,41.53-3.14,3.7-19.45,19.7-19.84,22.14-.98,6.17,4.5,5.86,8.64,2.73,12.13-9.18,44.94-49.87,46.67-64.47,1.04-8.8.39-19.24,1.09-28.15.84-10.66,2.38-21.32,3.1-32,.98-3.32,21.92-13.28,24.66-19.21,1.41-3.04-2.96-25.1-3.86-30.23ZM318.02,166.32c.62-1.57,1.37-3.26,3.42-2.91l-.66,7.62-6.15,11.87c1.54-4.83,1.65-12.17,3.39-16.58ZM265.57,270.84c-21.58,9.69-60.85-6.28-67.99-28.89-2.3-7.29.36-4.97,5.89-8.34.6.73-2.44,4.92-.01,6.36,4.06,2.8,8.86-9.01,9.81-11.69,1.85-5.24,2.12-11.03,4.35-16.12,14.5,20.04,37.98,44.22,63.85,26.32-3.54,14.15-.65,25.52-15.89,32.36ZM272.6,234.97c-18.71,9.2-44.09-15.38-51.75-30.93-2.09-4.24-5.75-22.32-6.74-22.99-4.15-2.82-4.53,3.55-4.8,3.81-3.58,3.41-14.26-16.9-15.09-19.5-1.49-4.69-1.66-9.84,1.93-13.61,6.3,3.05,8.51,9.87,12,15.27,4.98,7.71,5.54-8.23,6.54-11.41,2.64-8.38,3.31-4.54,10.06-6.51,2.88-.84,8.56-4.87,9.61-5.04,1.48-.23,3.08,2.53,5.62,2.64,3.76.17,8.27-3.11,11.65-2.79,2.96.28,5.87,3.72,7.72,3.68,7.73-.16,21.29-12.03,25.47-18.38,4.6-7,6.28-17.33,10.08-23.07,4.16-6.29,11.46,3.44,13.42,7.5,5.58,11.55,3.07,21.58-.54,33.18-3.49-5.55-23.37-7.01-25.89-1.94-.52,1.04.18,3.67,1.21,3.93,3.3.85,11.91-1.68,17.3-.93,2.9.4,8.39,3.84,8.87,3.8,1.17-.12.85-3.23,2.41-2.9,1.94,6.12-.14,13.35-1.27,19.67-4.01,22.34-15.91,55.74-37.81,66.51Z"/>
      <path class="st1" d="M269.75,194.17c4.45.88,10.54-2.63,11.31-7.3.58-3.53-3.29-16.79-3.52-22.05-.11-2.38,2.44-9.56-.47-10.18-5.07-1.08-4.57,14.24-4.36,17.04.24,3.24,3.04,12.28,2.5,14.2-.91,3.26-5.96,4.35-6.3,4.94-.55.95-.21,2.65.83,3.35Z"/>
      <path class="st1" d="M266.37,204.35c-6.56-.46-13.97-2.98-19.97-3.51-3.17-.28-4.43,2.29-1.71,3.75,8.06,4.31,26.02,5.88,34.88,4.21,1.74-.33,7.23-2.04,4.82-4.43-.64-.63-15.11.19-18.02-.01Z"/>
      <path class="st1" d="M249.31,154.64c.57-.44,4.98,5.67,6.81,3.89.96-.94-1.3-4.83-2.41-5.86-5.63-5.23-15.32-4.94-21.67-1.16-3.11,1.86-5.57,5.12.13,4.04,2.39-.45,4.26-1.9,6.4-2.86-.7,8.66,9.1,10.88,10.75,1.95Z"/>
      <path class="st1" d="M293.61,152.66c-9.24-.37-12.78,8.48-10.68,7.82l4.38-2.92c-.57,8.27,11.67,8.32,10.74,0,2.34-.82,7.09,5.61,8.76,3.9,3.42-3.5-10.26-8.68-13.2-8.8Z"/>
      <path class="st1" d="M255.6,212.3c-1.23.17-1.94,2.99-1.42,3.74,1,1.45,20.35,4.87,19.49-1.93-6.07-.14-12.36.81-18.06-1.81Z"/>
      <path class="st1" d="M264.89,189.23c.58-2.46-3.62-2.83-5.29-2.36-3.83,1.09,2.74,6.53,5.29,2.36Z"/>
    </g>
  </g>
</svg>